# Blender 4.2.1 LTS
# www.blender.org
mtllib mt5_present_base.mtl
o Cube.001
v 0.060234 -0.305451 0.390445
v 0.060234 0.253253 0.390445
v -0.390445 -0.305451 0.060234
v -0.390445 0.253253 0.060234
v 0.390445 -0.305451 -0.060234
v 0.390445 0.253253 -0.060234
v -0.060234 -0.305451 -0.390445
v -0.060234 0.253253 -0.390445
v 0.060234 0.253253 0.390445
v -0.390445 0.253253 0.060234
v -0.060234 0.253253 -0.390445
v 0.390445 0.253253 -0.060234
v 0.052226 0.253253 0.338533
v -0.338533 0.253253 0.052226
v -0.052226 0.253253 -0.338533
v 0.338533 0.253253 -0.052226
v 0.052226 -0.225220 0.338533
v -0.338533 -0.225220 0.052226
v -0.052226 -0.225220 -0.338533
v 0.338533 -0.225220 -0.052226
v -0.170304 -0.305451 -0.240219
v -0.280375 -0.305451 -0.089992
v -0.280375 0.253253 -0.089992
v -0.170304 0.253253 -0.240219
v 0.170304 -0.305451 0.240219
v 0.280375 -0.305451 0.089992
v 0.280375 0.253253 0.089992
v 0.170304 0.253253 0.240219
v -0.280375 0.253253 -0.089992
v -0.170304 0.253253 -0.240219
v 0.280375 0.253253 0.089992
v 0.170304 0.253253 0.240219
v -0.243097 0.253253 -0.078027
v -0.147661 0.253253 -0.208280
v 0.243097 0.253253 0.078027
v 0.147661 0.253253 0.208280
v -0.243097 -0.225220 -0.078027
v -0.147661 -0.225220 -0.208280
v 0.243097 -0.225220 0.078027
v 0.147661 -0.225220 0.208280
v 0.060234 -0.119217 0.390445
v 0.060234 0.067018 0.390445
v -0.390445 0.067018 0.060234
v -0.390445 -0.119217 0.060234
v -0.060234 0.067018 -0.390445
v -0.060234 -0.119217 -0.390445
v 0.390445 0.067018 -0.060234
v 0.390445 -0.119217 -0.060234
v 0.280375 0.067018 0.089992
v 0.280375 -0.119217 0.089992
v 0.170304 0.067018 0.240219
v 0.170304 -0.119217 0.240219
v -0.280375 0.067018 -0.089992
v -0.280375 -0.119217 -0.089992
v -0.170304 0.067018 -0.240219
v -0.170304 -0.119217 -0.240219
v -0.240219 -0.305451 0.170304
v -0.089992 -0.305451 0.280375
v -0.089992 0.253253 0.280375
v -0.240219 0.253253 0.170304
v 0.240219 -0.305451 -0.170304
v 0.089992 -0.305451 -0.280375
v 0.089992 0.253253 -0.280375
v 0.240219 0.253253 -0.170304
v -0.089992 0.253253 0.280375
v -0.240219 0.253253 0.170304
v 0.089992 0.253253 -0.280375
v 0.240219 0.253253 -0.170304
v -0.078027 0.253253 0.243097
v -0.208280 0.253253 0.147661
v 0.078027 0.253253 -0.243097
v 0.208280 0.253253 -0.147661
v -0.078027 -0.225220 0.243097
v -0.208280 -0.225220 0.147661
v 0.078027 -0.225220 -0.243097
v 0.208280 -0.225220 -0.147661
v -0.017409 -0.225220 -0.112844
v 0.112844 -0.225220 -0.017409
v -0.112844 -0.225220 0.017409
v 0.017409 -0.225220 0.112844
v -0.130148 -0.305451 0.020078
v 0.020078 -0.305451 0.130148
v -0.020078 -0.305451 -0.130148
v 0.130148 -0.305451 -0.020078
v 0.089992 -0.119217 -0.280375
v 0.240219 -0.119217 -0.170304
v 0.089992 0.067018 -0.280375
v 0.240219 0.067018 -0.170304
v -0.089992 -0.119217 0.280375
v -0.240219 -0.119217 0.170304
v -0.089992 0.067018 0.280375
v -0.240219 0.067018 0.170304
vn -0.5910 -0.0000 0.8067
vn -0.8067 -0.0000 -0.5910
vn 0.5910 -0.0000 -0.8067
vn 0.8067 -0.0000 0.5910
vn -0.0000 -1.0000 -0.0000
vn -0.0000 1.0000 -0.0000
vt 0.325427 0.134537
vt 0.332613 0.134537
vt 0.332613 0.141722
vt 0.325427 0.141722
vt 0.325427 0.156093
vt 0.332613 0.156093
vt 0.332613 0.163279
vt 0.325427 0.163279
vt 0.325427 0.177650
vt 0.332613 0.177650
vt 0.332613 0.184835
vt 0.325427 0.184835
vt 0.325427 0.199206
vt 0.332613 0.199206
vt 0.332613 0.206392
vt 0.325427 0.206392
vt 0.303871 0.177650
vt 0.311056 0.177650
vt 0.311056 0.184835
vt 0.303871 0.184835
vt 0.332613 0.170464
vt 0.625000 0.083333
vt 0.625000 0.000000
vt 0.625000 0.083333
vt 0.332613 0.127351
vt 0.332613 0.120166
vt 0.625000 0.833333
vt 0.625000 0.750000
vt 0.625000 0.833333
vt 0.625000 0.333333
vt 0.625000 0.250000
vt 0.625000 0.833333
vt 0.625000 0.333333
vt 0.625000 0.583333
vt 0.625000 0.500000
vt 0.625000 0.583333
vt 0.791667 0.666667
vt 0.875000 0.666667
vt 0.875000 0.750000
vt 0.791667 0.750000
vt 0.625000 0.416667
vt 0.625000 0.416667
vt 0.625000 0.666667
vt 0.708333 0.666667
vt 0.708333 0.750000
vt 0.625000 1.000000
vt 0.625000 0.916667
vt 0.625000 0.916667
vt 0.289500 0.177650
vt 0.296685 0.177650
vt 0.296685 0.184835
vt 0.289500 0.184835
vt 0.332613 0.192021
vt 0.325427 0.192021
vt 0.529520 0.911016
vt 0.532166 0.911016
vt 0.532166 0.913662
vt 0.529520 0.913662
vt 0.332613 0.148908
vt 0.325427 0.148908
vt 0.529520 0.895141
vt 0.532166 0.895141
vt 0.532166 0.897787
vt 0.529520 0.897787
vt 0.524229 0.895141
vt 0.526874 0.895141
vt 0.526874 0.897787
vt 0.524229 0.897787
vt 0.311056 0.141722
vt 0.318242 0.141722
vt 0.318242 0.148908
vt 0.311056 0.148908
vt 0.526874 0.892495
vt 0.529520 0.892495
vt 0.524229 0.911016
vt 0.526874 0.911016
vt 0.526874 0.913662
vt 0.524229 0.913662
vt 0.318242 0.184835
vt 0.318242 0.192021
vt 0.311056 0.192021
vt 0.526874 0.908371
vt 0.529520 0.908371
vt 0.311056 0.199206
vt 0.318242 0.199206
vt 0.318242 0.206392
vt 0.311056 0.206392
vt 0.529520 0.916308
vt 0.526874 0.916308
vt 0.318242 0.177650
vt 0.526874 0.905725
vt 0.529520 0.905725
vt 0.311056 0.156093
vt 0.318242 0.156093
vt 0.318242 0.163279
vt 0.311056 0.163279
vt 0.529520 0.900433
vt 0.526874 0.900433
vt 0.311056 0.134537
vt 0.318242 0.134537
vt 0.526874 0.889849
vt 0.529520 0.889849
vt 0.526874 0.884557
vt 0.529520 0.884557
vt 0.529520 0.887203
vt 0.526874 0.887203
vt 0.311056 0.120166
vt 0.318242 0.120166
vt 0.318242 0.127351
vt 0.311056 0.127351
vt 0.527811 0.898335
vt 0.528793 0.898335
vt 0.528793 0.899317
vt 0.527811 0.899317
vt 0.529520 0.903079
vt 0.526874 0.903079
vt 0.318242 0.170464
vt 0.311056 0.170464
vt 0.527811 0.904226
vt 0.528793 0.904226
vt 0.528793 0.905207
vt 0.527811 0.905207
vt 0.296685 0.163279
vt 0.303871 0.163279
vt 0.303871 0.170464
vt 0.296685 0.170464
vt 0.289500 0.163279
vt 0.289500 0.170464
vt 0.708333 0.500000
vt 0.791667 0.500000
vt 0.791667 0.583333
vt 0.708333 0.583333
vt 0.625000 0.166667
vt 0.625000 0.166667
vt 0.625000 0.666667
vt 0.875000 0.500000
vt 0.875000 0.583333
vt 0.625000 0.166667
vt 0.325427 0.170464
vt 0.529775 0.904226
vt 0.530756 0.904226
vt 0.530756 0.905207
vt 0.529775 0.905207
vt 0.325427 0.120166
vt 0.325427 0.127351
vt 0.529775 0.898335
vt 0.530756 0.898335
vt 0.530756 0.899317
vt 0.529775 0.899317
s 0
usemtl Material.017
f 92/1/1 60/2/1 4/3/1 43/4/1
f 55/5/2 24/6/2 8/7/2 45/8/2
f 88/9/3 64/10/3 6/11/3 47/12/3
f 51/13/4 28/14/4 2/15/4 42/16/4
f 84/17/5 61/18/5 5/19/5 26/20/5
f 63/21/6 8/7/6 11/7/6 67/21/6
f 65/22/6 9/23/6 13/23/6 69/24/6
f 59/25/6 2/26/6 9/26/6 65/25/6
f 27/27/6 6/28/6 12/28/6 31/29/6
f 23/30/6 4/31/6 10/31/6 29/30/6
f 35/32/2 16/28/2 20/28/2 39/27/2
f 31/29/6 12/28/6 16/28/6 35/32/6
f 29/30/6 10/31/6 14/31/6 33/33/6
f 67/34/6 11/35/6 15/35/6 71/36/6
f 80/37/6 73/38/6 17/39/6 40/40/6
f 33/33/4 14/31/4 18/31/4 37/30/4
f 71/36/1 15/35/1 19/35/1 75/34/1
f 69/24/3 13/23/3 17/23/3 73/22/3
f 15/35/4 34/41/4 38/42/4 19/35/4
f 34/41/4 33/33/4 37/30/4 38/42/4
f 76/43/6 78/44/6 39/45/6 20/28/6
f 78/44/6 80/37/6 40/40/6 39/45/6
f 11/35/6 30/42/6 34/41/6 15/35/6
f 30/42/6 29/30/6 33/33/6 34/41/6
f 9/46/6 32/47/6 36/48/6 13/46/6
f 32/47/6 31/29/6 35/32/6 36/48/6
f 13/46/2 36/48/2 40/47/2 17/46/2
f 36/48/2 35/32/2 39/27/2 40/47/2
f 8/35/6 24/42/6 30/42/6 11/35/6
f 24/42/6 23/30/6 29/30/6 30/42/6
f 2/46/6 28/47/6 32/47/6 9/46/6
f 28/47/6 27/27/6 31/29/6 32/47/6
f 58/49/5 82/50/5 25/51/5 1/52/5
f 82/50/5 84/17/5 26/20/5 25/51/5
f 47/12/4 6/11/4 27/53/4 49/54/4
f 49/55/4 27/56/4 28/57/4 51/58/4
f 43/4/2 4/3/2 23/59/2 53/60/2
f 53/61/2 23/62/2 24/63/2 55/64/2
f 22/65/2 54/66/2 56/67/2 21/68/2
f 54/66/2 53/61/2 55/64/2 56/67/2
f 3/69/2 44/70/2 54/71/2 22/72/2
f 44/73/2 43/74/2 53/61/2 54/66/2
f 26/75/4 50/76/4 52/77/4 25/78/4
f 50/76/4 49/55/4 51/58/4 52/77/4
f 5/19/4 48/79/4 50/80/4 26/81/4
f 48/82/4 47/83/4 49/55/4 50/76/4
f 25/84/4 52/85/4 41/86/4 1/87/4
f 52/77/4 51/58/4 42/88/4 41/89/4
f 61/18/3 86/90/3 48/79/3 5/19/3
f 86/91/3 88/92/3 47/83/3 48/82/3
f 21/93/2 56/94/2 46/95/2 7/96/2
f 56/67/2 55/64/2 45/97/2 46/98/2
f 57/99/1 90/100/1 44/70/1 3/69/1
f 90/101/1 92/102/1 43/74/1 44/73/1
f 41/103/1 42/104/1 91/105/1 89/106/1
f 89/106/1 91/105/1 92/102/1 90/101/1
f 1/107/1 41/108/1 89/109/1 58/110/1
f 58/111/1 89/112/1 90/113/1 57/114/1
f 46/98/3 45/97/3 87/115/3 85/116/3
f 85/116/3 87/115/3 88/92/3 86/91/3
f 7/96/3 46/95/3 85/117/3 62/118/3
f 62/119/3 85/120/3 86/121/3 61/122/3
f 22/123/5 21/124/5 83/125/5 81/126/5
f 81/126/5 83/125/5 84/17/5 82/50/5
f 3/127/5 22/123/5 81/126/5 57/128/5
f 57/128/5 81/126/5 82/50/5 58/49/5
f 38/129/6 37/130/6 79/131/6 77/132/6
f 77/132/6 79/131/6 80/37/6 78/44/6
f 19/35/6 38/129/6 77/132/6 75/34/6
f 75/34/6 77/132/6 78/44/6 76/43/6
f 14/31/3 70/133/3 74/134/3 18/31/3
f 70/133/3 69/24/3 73/22/3 74/134/3
f 16/28/1 72/135/1 76/43/1 20/28/1
f 72/135/1 71/36/1 75/34/1 76/43/1
f 37/130/6 18/136/6 74/137/6 79/131/6
f 79/131/6 74/137/6 73/38/6 80/37/6
f 12/28/6 68/43/6 72/135/6 16/28/6
f 68/43/6 67/34/6 71/36/6 72/135/6
f 4/3/6 60/2/6 66/2/6 10/3/6
f 60/2/6 59/25/6 65/25/6 66/2/6
f 10/31/6 66/138/6 70/133/6 14/31/6
f 66/138/6 65/22/6 69/24/6 70/133/6
f 6/11/6 64/10/6 68/10/6 12/11/6
f 64/10/6 63/21/6 67/21/6 68/10/6
f 21/124/5 7/96/5 62/118/5 83/125/5
f 83/125/5 62/118/5 61/18/5 84/17/5
f 45/8/3 8/7/3 63/21/3 87/139/3
f 87/140/3 63/141/3 64/142/3 88/143/3
f 42/144/1 2/26/1 59/25/1 91/145/1
f 91/146/1 59/147/1 60/148/1 92/149/1
