# Blender 4.2.1 LTS
# www.blender.org
mtllib mt5_present_top.mtl
o Cube.002
v -0.058523 0.321159 -0.398864
v -0.058523 0.240869 -0.398864
v -0.396265 0.321159 0.062093
v -0.396265 0.240869 0.062093
v 0.402434 0.321160 -0.061123
v 0.402434 0.240869 -0.061123
v 0.064693 0.321160 0.399835
v 0.064693 0.240869 0.399835
v -0.058523 0.240869 -0.398864
v -0.396265 0.240869 0.062093
v 0.064693 0.240869 0.399835
v 0.402434 0.240869 -0.061123
v -0.050332 0.240869 -0.345768
v -0.343169 0.240869 0.053902
v 0.056501 0.240869 0.346739
v 0.349338 0.240869 -0.052931
v -0.050332 0.309630 -0.345768
v -0.343169 0.309630 0.053902
v 0.056501 0.309630 0.346739
v 0.349338 0.309630 -0.052931
v 0.025954 0.455705 0.093704
v 0.012304 0.424125 0.112334
v -0.104782 0.455705 -0.002085
v -0.118432 0.424125 0.016544
v -0.154310 0.460526 0.065511
v -0.023574 0.460526 0.161300
v -0.011989 0.426666 0.145489
v -0.142725 0.426666 0.049700
v -0.185520 0.374224 0.108108
v -0.054784 0.374224 0.203897
v -0.031722 0.371370 0.172422
v -0.162458 0.371370 0.076632
v -0.170164 0.319672 0.087149
v -0.039428 0.319672 0.182939
v -0.025790 0.351267 0.164325
v -0.156526 0.351267 0.068536
v -0.083363 0.285930 -0.031319
v 0.047373 0.285930 0.064471
v 0.061011 0.317525 0.045858
v -0.069725 0.317525 -0.049932
v -0.036443 0.455705 -0.095356
v -0.022793 0.424125 -0.113986
v 0.094293 0.455705 0.000433
v 0.107942 0.424125 -0.018196
v 0.143820 0.460526 -0.067163
v 0.013084 0.460526 -0.162953
v 0.001500 0.426666 -0.147142
v 0.132236 0.426666 -0.051352
v 0.175031 0.374224 -0.109760
v 0.044295 0.374224 -0.205549
v 0.021233 0.371370 -0.174074
v 0.151969 0.371370 -0.078285
v 0.159675 0.319672 -0.088801
v 0.028939 0.319672 -0.184591
v 0.015301 0.351267 -0.165978
v 0.146037 0.351267 -0.070188
v 0.072874 0.285930 0.029666
v -0.057862 0.285930 -0.066123
v -0.071500 0.317525 -0.047510
v 0.059236 0.317525 0.048280
v -0.283684 0.321159 -0.091559
v -0.171104 0.321159 -0.245211
v -0.171104 0.240869 -0.245211
v -0.283684 0.240869 -0.091559
v 0.289854 0.321160 0.092530
v 0.177273 0.321160 0.246182
v 0.177273 0.240869 0.246182
v 0.289854 0.240869 0.092530
v -0.171104 0.240869 -0.245211
v -0.283684 0.240869 -0.091559
v 0.177273 0.240869 0.246182
v 0.289854 0.240869 0.092530
v -0.147944 0.240869 -0.212544
v -0.245556 0.240869 -0.079321
v 0.154114 0.240869 0.213515
v 0.251726 0.240869 0.080292
v -0.147944 0.309630 -0.212544
v -0.245556 0.309630 -0.079321
v 0.154114 0.309630 0.213515
v 0.251726 0.309630 0.080292
v -0.088960 0.321160 0.287254
v -0.242612 0.321159 0.174674
v -0.242612 0.240869 0.174674
v -0.088960 0.240869 0.287254
v 0.095129 0.321159 -0.286284
v 0.248782 0.321160 -0.173703
v 0.248782 0.240869 -0.173703
v 0.095129 0.240869 -0.286284
v -0.242612 0.240869 0.174674
v -0.088960 0.240869 0.287254
v 0.248782 0.240869 -0.173703
v 0.095129 0.240869 -0.286284
v -0.209945 0.240869 0.151515
v -0.076722 0.240869 0.249127
v 0.216115 0.240869 -0.150544
v 0.082891 0.240869 -0.248156
v -0.209945 0.309630 0.151514
v -0.076722 0.309630 0.249127
v 0.216115 0.309630 -0.150544
v 0.082891 0.309630 -0.248156
v -0.112333 0.309630 0.018291
v 0.020890 0.309630 0.115903
v -0.014721 0.309630 -0.114932
v 0.118502 0.309630 -0.017320
v 0.023621 0.321160 0.133602
v -0.130032 0.321159 0.021021
v 0.136201 0.321160 -0.020051
v -0.017451 0.321159 -0.132631
vn -0.8067 -0.0000 -0.5910
vn -0.5910 -0.0000 0.8067
vn 0.8067 -0.0000 0.5910
vn 0.5910 -0.0000 -0.8067
vn -0.0000 1.0000 -0.0000
vn -0.0000 -1.0000 -0.0000
vn -0.5431 -0.3945 0.7412
vn 0.5431 0.3945 -0.7412
vn -0.5060 0.5169 0.6905
vn 0.0365 0.9981 -0.0498
vn -0.0339 -0.9983 0.0463
vn 0.5041 -0.5219 -0.6881
vn -0.8066 -0.0000 -0.5910
vn -0.5288 -0.4467 0.7217
vn 0.5336 0.4300 -0.7283
vn -0.4773 0.5898 0.6514
vn -0.1323 -0.9746 0.1806
vn 0.1323 0.9746 -0.1806
vn 0.5431 -0.3945 -0.7412
vn -0.5431 0.3945 0.7412
vn 0.5060 0.5169 -0.6905
vn -0.0365 0.9981 0.0498
vn 0.0339 -0.9983 -0.0463
vn -0.5041 -0.5219 0.6881
vn 0.8066 -0.0000 0.5910
vn 0.5288 -0.4467 -0.7217
vn -0.5336 0.4300 0.7283
vn 0.4773 0.5898 -0.6514
vn 0.1323 -0.9746 -0.1806
vn -0.1323 0.9746 0.1806
vt 0.256586 0.072470
vt 0.266344 0.072470
vt 0.266344 0.075723
vt 0.256586 0.075723
vt 0.256586 0.082228
vt 0.266344 0.082228
vt 0.266344 0.085481
vt 0.256586 0.085481
vt 0.256586 0.091986
vt 0.266344 0.091986
vt 0.266344 0.095239
vt 0.256586 0.095239
vt 0.256586 0.101744
vt 0.266344 0.101744
vt 0.266344 0.104996
vt 0.256586 0.104996
vt 0.253334 0.091986
vt 0.253334 0.095239
vt 0.266344 0.088733
vt 0.266344 0.069217
vt 0.266344 0.065965
vt 0.266344 0.069217
vt 0.266344 0.098491
vt 0.266344 0.078975
vt 0.272850 0.091986
vt 0.276102 0.091986
vt 0.276102 0.095239
vt 0.272850 0.095239
vt 0.526267 0.902909
vt 0.528292 0.902909
vt 0.526267 0.900884
vt 0.528292 0.900884
vt 0.528292 0.898859
vt 0.526267 0.898859
vt 0.526267 0.896833
vt 0.528292 0.896833
vt 0.530317 0.900884
vt 0.530317 0.898859
vt 0.524241 0.900884
vt 0.524241 0.898859
vt 0.528292 0.904935
vt 0.526267 0.904935
vt 0.530641 0.888610
vt 0.527321 0.888610
vt 0.530641 0.891930
vt 0.527321 0.891930
vt 0.527321 0.895250
vt 0.530641 0.895250
vt 0.530641 0.898570
vt 0.527321 0.898570
vt 0.524001 0.891930
vt 0.524001 0.895250
vt 0.533961 0.891930
vt 0.533961 0.895250
vt 0.527321 0.885290
vt 0.530641 0.885290
vt 0.272850 0.085481
vt 0.276102 0.085481
vt 0.276102 0.088733
vt 0.272850 0.088733
vt 0.527869 0.892969
vt 0.527869 0.889716
vt 0.527714 0.891940
vt 0.527714 0.888687
vt 0.527714 0.888687
vt 0.253334 0.085481
vt 0.256586 0.088733
vt 0.253334 0.088733
vt 0.531025 0.891303
vt 0.530233 0.891303
vt 0.530233 0.890511
vt 0.531025 0.890511
vt 0.527856 0.891303
vt 0.527856 0.890511
vt 0.256586 0.065965
vt 0.256586 0.069217
vt 0.530233 0.896056
vt 0.527856 0.896056
vt 0.527856 0.895264
vt 0.530233 0.895264
vt 0.532609 0.891303
vt 0.531817 0.891303
vt 0.531817 0.890511
vt 0.532609 0.890511
vt 0.246828 0.085481
vt 0.250081 0.085481
vt 0.250081 0.088733
vt 0.246828 0.088733
vt 0.531817 0.892095
vt 0.531025 0.892095
vt 0.269597 0.088733
vt 0.269597 0.091986
vt 0.269597 0.085481
vt 0.269597 0.095239
vt 0.527714 0.901698
vt 0.527714 0.898445
vt 0.527714 0.921214
vt 0.527714 0.917961
vt 0.246828 0.091986
vt 0.250081 0.091986
vt 0.250081 0.095239
vt 0.246828 0.095239
vt 0.531025 0.889719
vt 0.531817 0.889719
vt 0.256586 0.098491
vt 0.530233 0.888927
vt 0.527856 0.888927
vt 0.527856 0.888135
vt 0.530233 0.888135
vt 0.256586 0.078975
vt 0.530233 0.893680
vt 0.527856 0.893680
vt 0.527856 0.892888
vt 0.530233 0.892888
s 0
usemtl Material.018
f 61/1/1 64/2/1 4/3/1 3/4/1
f 81/5/2 84/6/2 8/7/2 7/8/2
f 65/9/3 68/10/3 6/11/3 5/12/3
f 85/13/4 88/14/4 2/15/4 1/16/4
f 107/17/5 65/9/5 5/12/5 86/18/5
f 67/19/5 8/7/5 11/7/5 71/19/5
f 69/20/6 9/21/6 13/21/6 73/22/6
f 63/22/5 2/21/5 9/21/5 69/20/5
f 87/23/5 6/11/5 12/11/5 91/23/5
f 83/24/5 4/3/5 10/3/5 89/24/5
f 95/23/2 16/11/2 20/11/2 99/23/2
f 91/23/6 12/11/6 16/11/6 95/23/6
f 89/24/6 10/3/6 14/3/6 93/24/6
f 71/19/6 11/7/6 15/7/6 75/19/6
f 103/25/6 77/26/6 17/27/6 100/28/6
f 93/24/4 14/3/4 18/3/4 97/24/4
f 75/19/1 15/7/1 19/7/1 79/19/1
f 73/22/3 13/21/3 17/21/3 77/22/3
f 24/29/3 23/30/3 25/30/3 28/29/3
f 23/30/3 24/29/3 37/31/3 40/32/3
f 39/33/1 38/34/1 22/35/1 21/36/1
f 23/37/7 40/32/7 39/33/7 21/38/7
f 37/31/8 24/39/8 22/40/8 38/34/8
f 27/40/9 28/39/9 32/39/9 31/40/9
f 21/36/1 22/35/1 27/35/1 26/36/1
f 22/40/10 24/39/10 28/39/10 27/40/10
f 23/37/11 21/38/11 26/38/11 25/37/11
f 32/29/3 29/30/3 33/30/3 36/29/3
f 25/37/12 26/38/12 30/38/12 29/37/12
f 28/29/3 25/30/3 29/30/3 32/29/3
f 26/36/13 27/35/13 31/35/13 30/36/13
f 36/29/3 33/30/3 37/30/3 40/29/3
f 30/36/13 31/35/13 35/35/13 34/36/13
f 31/40/14 32/39/14 36/39/14 35/40/14
f 29/37/15 30/38/15 34/38/15 33/37/15
f 38/41/16 39/42/16 40/29/16 37/30/16
f 34/36/1 35/35/1 39/35/1 38/36/1
f 35/40/17 36/39/17 40/39/17 39/40/17
f 33/37/18 34/38/18 38/38/18 37/37/18
f 44/43/1 43/44/1 45/44/1 48/43/1
f 43/44/1 44/43/1 57/45/1 60/46/1
f 59/47/3 58/48/3 42/49/3 41/50/3
f 43/51/19 60/46/19 59/47/19 41/52/19
f 57/45/20 44/53/20 42/54/20 58/48/20
f 47/54/21 48/53/21 52/53/21 51/54/21
f 41/50/3 42/49/3 47/49/3 46/50/3
f 42/54/22 44/53/22 48/53/22 47/54/22
f 43/51/23 41/52/23 46/52/23 45/51/23
f 52/43/1 49/44/1 53/44/1 56/43/1
f 45/51/24 46/52/24 50/52/24 49/51/24
f 48/43/1 45/44/1 49/44/1 52/43/1
f 46/50/25 47/49/25 51/49/25 50/50/25
f 56/43/1 53/44/1 57/44/1 60/43/1
f 50/50/25 51/49/25 55/49/25 54/50/25
f 51/54/26 52/53/26 56/53/26 55/54/26
f 49/51/27 50/52/27 54/52/27 53/51/27
f 58/55/28 59/56/28 60/43/28 57/44/28
f 54/50/25 55/49/25 59/49/25 58/50/25
f 55/54/29 56/53/29 60/53/29 59/54/29
f 53/51/30 54/52/30 58/52/30 57/51/30
f 14/3/3 74/2/3 78/2/3 18/3/3
f 74/2/3 73/22/3 77/22/3 78/2/3
f 16/11/1 76/10/1 80/10/1 20/11/1
f 76/10/1 75/19/1 79/19/1 80/10/1
f 97/57/6 18/58/6 78/59/6 101/60/6
f 101/60/6 78/59/6 77/26/6 103/25/6
f 12/11/6 72/10/6 76/10/6 16/11/6
f 72/61/6 71/62/6 75/62/6 76/61/6
f 4/3/5 64/2/5 70/2/5 10/3/5
f 64/2/5 63/22/5 69/20/5 70/2/5
f 10/3/6 70/2/6 74/2/6 14/3/6
f 70/63/6 69/64/6 73/65/6 74/63/6
f 6/11/5 68/10/5 72/10/5 12/11/5
f 68/10/5 67/19/5 71/19/5 72/10/5
f 81/66/5 7/8/5 66/67/5 105/68/5
f 105/69/5 66/70/5 65/71/5 107/72/5
f 7/8/3 8/7/3 67/19/3 66/67/3
f 66/70/3 67/73/3 68/74/3 65/71/3
f 1/75/1 2/21/1 63/22/1 62/76/1
f 62/77/1 63/78/1 64/79/1 61/80/1
f 61/81/5 106/82/5 108/83/5 62/84/5
f 106/82/5 105/69/5 107/72/5 108/83/5
f 3/85/5 82/86/5 106/87/5 61/88/5
f 82/89/5 81/90/5 105/69/5 106/82/5
f 79/19/6 102/91/6 104/92/6 80/10/6
f 102/91/6 101/60/6 103/25/6 104/92/6
f 19/7/6 98/93/6 102/91/6 79/19/6
f 98/93/6 97/57/6 101/60/6 102/91/6
f 15/7/4 94/6/4 98/6/4 19/7/4
f 94/6/4 93/24/4 97/24/4 98/6/4
f 80/10/6 104/92/6 99/94/6 20/11/6
f 104/92/6 103/25/6 100/28/6 99/94/6
f 11/7/6 90/6/6 94/6/6 15/7/6
f 90/95/6 89/96/6 93/96/6 94/95/6
f 9/15/6 92/14/6 96/14/6 13/15/6
f 92/97/6 91/98/6 95/98/6 96/97/6
f 13/15/2 96/14/2 100/14/2 17/15/2
f 96/14/2 95/23/2 99/23/2 100/14/2
f 8/7/5 84/6/5 90/6/5 11/7/5
f 84/6/5 83/24/5 89/24/5 90/6/5
f 2/15/5 88/14/5 92/14/5 9/15/5
f 88/14/5 87/23/5 91/23/5 92/14/5
f 62/99/5 108/100/5 85/101/5 1/102/5
f 108/83/5 107/72/5 86/103/5 85/104/5
f 5/12/4 6/11/4 87/23/4 86/105/4
f 86/106/4 87/107/4 88/108/4 85/109/4
f 3/4/2 4/3/2 83/24/2 82/110/2
f 82/111/2 83/112/2 84/113/2 81/114/2
